{
  "accessors": [
    {
      "bufferView": 2,
      "componentType": 5126,
      "count": 1408,
      "max": [
        0.11301200091838837,
        0.1830153614282608,
        0.1705431342124939
      ],
      "min": [
        -0.11301200091838837,
        -0.1469276398420334,
        -0.15795587003231049
      ],
      "type": "VEC3"
    },
    {
      "bufferView": 2,
      "byteOffset": 16896,
      "componentType": 5126,
      "count": 1408,
      "max": [
        1.0,
        0.9999970197677612,
        0.9959473609924316
      ],
      "min": [
        -1.0,
        -0.9999254941940308,
        -1.0
      ],
      "type": "VEC3"
    },
    {
      "bufferView": 3,
      "componentType": 5126,
      "count": 1408,
      "max": [
        0.9999997019767761,
        0.9992995262145996,
        0.9324218034744263,
        1.0
      ],
      "min": [
        -0.9999760985374451,
        -0.9995856285095215,
        -0.999725878238678,
        -1.0
      ],
      "type": "VEC4"
    },
    {
      "bufferView": 1,
      "componentType": 5126,
      "count": 1408,
      "max": [
        0.9910889863967896,
        0.9862579703330994
      ],
      "min": [
        0.02200699970126152,
        0.033546000719070435
      ],
      "type": "VEC2"
    },
    {
      "bufferView": 1,
      "byteOffset": 11264,
      "componentType": 5126,
      "count": 1408,
      "max": [
        0.9910889863967896,
        0.9862579703330994
      ],
      "min": [
        0.02200699970126152,
        0.033546000719070435
      ],
      "type": "VEC2"
    },
    {
      "bufferView": 1,
      "byteOffset": 22528,
      "componentType": 5126,
      "count": 1408,
      "max": [
        0.9910889863967896,
        0.9862579703330994
      ],
      "min": [
        0.02200699970126152,
        0.033546000719070435
      ],
      "type": "VEC2"
    },
    {
      "bufferView": 1,
      "byteOffset": 33792,
      "componentType": 5126,
      "count": 1408,
      "max": [
        0.9910889863967896,
        0.9862579703330994
      ],
      "min": [
        0.02200699970126152,
        0.033546000719070435
      ],
      "type": "VEC2"
    },
    {
      "bufferView": 0,
      "componentType": 5125,
      "count": 4836,
      "type": "SCALAR"
    },
    {
      "bufferView": 2,
      "byteOffset": 33792,
      "componentType": 5126,
      "count": 13395,
      "max": [
        0.6069998145103455,
        -0.04574441909790039,
        0.21422266960144043
      ],
      "min": [
        -0.606999933719635,
        -1.7053686380386353,
        -0.1995680034160614
      ],
      "type": "VEC3"
    },
    {
      "bufferView": 2,
      "byteOffset": 194532,
      "componentType": 5126,
      "count": 13395,
      "max": [
        0.9999445676803589,
        0.9999414682388306,
        0.9999606609344482
      ],
      "min": [
        -0.9996933937072754,
        -0.9999982118606567,
        -0.9998443126678467
      ],
      "type": "VEC3"
    },
    {
      "bufferView": 3,
      "byteOffset": 22528,
      "componentType": 5126,
      "count": 13395,
      "max": [
        1.0,
        1.0,
        1.0,
        1.0
      ],
      "min": [
        -1.0,
        -1.0,
        -1.0,
        1.0
      ],
      "type": "VEC4"
    },
    {
      "bufferView": 3,
      "byteOffset": 236848,
      "componentType": 5126,
      "count": 13395,
      "max": [
        1.0,
        1.0,
        1.0,
        1.0
      ],
      "min": [
        1.0,
        1.0,
        1.0,
        1.0
      ],
      "type": "VEC4"
    },
    {
      "bufferView": 1,
      "byteOffset": 45056,
      "componentType": 5126,
      "count": 13395,
      "max": [
        0.9137756824493408,
        0.9809055328369141
      ],
      "min": [
        0.01814980059862137,
        0.012358800508081913
      ],
      "type": "VEC2"
    },
    {
      "bufferView": 1,
      "byteOffset": 152216,
      "componentType": 5126,
      "count": 13395,
      "max": [
        0.0,
        0.0
      ],
      "min": [
        0.0,
        0.0
      ],
      "type": "VEC2"
    },
    {
      "bufferView": 1,
      "byteOffset": 259376,
      "componentType": 5126,
      "count": 13395,
      "max": [
        0.0,
        0.0
      ],
      "min": [
        0.0,
        0.0
      ],
      "type": "VEC2"
    },
    {
      "bufferView": 1,
      "byteOffset": 366536,
      "componentType": 5126,
      "count": 13395,
      "max": [
        0.9137756824493408,
        0.9809055328369141
      ],
      "min": [
        0.01814980059862137,
        0.012358800508081913
      ],
      "type": "VEC2"
    },
    {
      "bufferView": 1,
      "byteOffset": 473696,
      "componentType": 5126,
      "count": 13395,
      "max": [
        0.9137756824493408,
        0.9809055328369141
      ],
      "min": [
        0.01814980059862137,
        0.012358800508081913
      ],
      "type": "VEC2"
    },
    {
      "bufferView": 1,
      "byteOffset": 580856,
      "componentType": 5126,
      "count": 13395,
      "max": [
        0.9137756824493408,
        0.9809055328369141
      ],
      "min": [
        0.01814980059862137,
        0.012358800508081913
      ],
      "type": "VEC2"
    },
    {
      "bufferView": 0,
      "byteOffset": 19344,
      "componentType": 5125,
      "count": 60384,
      "type": "SCALAR"
    },
    {
      "bufferView": 2,
      "byteOffset": 355272,
      "componentType": 5126,
      "count": 4587,
      "max": [
        0.6596518158912659,
        0.09738588333129883,
        0.1789042204618454
      ],
      "min": [
        -0.6596248149871826,
        -0.8655839562416077,
        -0.1191127598285675
      ],
      "type": "VEC3"
    },
    {
      "bufferView": 2,
      "byteOffset": 410316,
      "componentType": 5126,
      "count": 4587,
      "max": [
        0.9996894598007202,
        0.998699963092804,
        0.9998410940170288
      ],
      "min": [
        -0.9995059967041016,
        -0.9993864297866821,
        -0.9999912977218628
      ],
      "type": "VEC3"
    },
    {
      "bufferView": 3,
      "byteOffset": 451168,
      "componentType": 5126,
      "count": 4587,
      "max": [
        0.9999995827674866,
        0.9742439389228821,
        0.9996755719184875,
        1.0
      ],
      "min": [
        -0.9999995231628418,
        -0.9888252019882202,
        -0.9998270869255066,
        -1.0
      ],
      "type": "VEC4"
    },
    {
      "bufferView": 3,
      "byteOffset": 524560,
      "componentType": 5126,
      "count": 4587,
      "max": [
        1.0,
        1.0,
        1.0,
        1.0
      ],
      "min": [
        0.0,
        0.0,
        0.0,
        0.0
      ],
      "type": "VEC4"
    },
    {
      "bufferView": 1,
      "byteOffset": 688016,
      "componentType": 5126,
      "count": 4587,
      "max": [
        0.7494200468063354,
        0.999779999256134
      ],
      "min": [
        0.00017100000695791095,
        0.010033000260591507
      ],
      "type": "VEC2"
    },
    {
      "bufferView": 1,
      "byteOffset": 724712,
      "componentType": 5126,
      "count": 4587,
      "max": [
        0.41329923272132874,
        0.9943580031394958
      ],
      "min": [
        0.0,
        0.0
      ],
      "type": "VEC2"
    },
    {
      "bufferView": 1,
      "byteOffset": 761408,
      "componentType": 5126,
      "count": 4587,
      "max": [
        0.0,
        0.0
      ],
      "min": [
        0.0,
        0.0
      ],
      "type": "VEC2"
    },
    {
      "bufferView": 1,
      "byteOffset": 798104,
      "componentType": 5126,
      "count": 4587,
      "max": [
        0.41329923272132874,
        0.9943580031394958
      ],
      "min": [
        0.0,
        0.0
      ],
      "type": "VEC2"
    },
    {
      "bufferView": 1,
      "byteOffset": 834800,
      "componentType": 5126,
      "count": 4587,
      "max": [
        0.41329923272132874,
        0.9943580031394958
      ],
      "min": [
        0.0,
        0.0
      ],
      "type": "VEC2"
    },
    {
      "bufferView": 1,
      "byteOffset": 871496,
      "componentType": 5126,
      "count": 4587,
      "max": [
        0.41329923272132874,
        0.9943580031394958
      ],
      "min": [
        0.0,
        0.0
      ],
      "type": "VEC2"
    },
    {
      "bufferView": 0,
      "byteOffset": 260880,
      "componentType": 5125,
      "count": 25509,
      "type": "SCALAR"
    },
    {
      "bufferView": 2,
      "byteOffset": 465360,
      "componentType": 5126,
      "count": 13112,
      "max": [
        0.07767707109451294,
        0.008966207504272461,
        0.11767378449440002
      ],
      "min": [
        -0.07668513059616089,
        -0.19270610809326172,
        0.01672462373971939
      ],
      "type": "VEC3"
    },
    {
      "bufferView": 2,
      "byteOffset": 622704,
      "componentType": 5126,
      "count": 13112,
      "max": [
        0.9999964237213135,
        0.9897679686546326,
        0.9999333620071411
      ],
      "min": [
        -0.9999016523361206,
        -0.9992276430130005,
        -0.7325910329818726
      ],
      "type": "VEC3"
    },
    {
      "bufferView": 3,
      "byteOffset": 597952,
      "componentType": 5126,
      "count": 13112,
      "max": [
        1.0,
        1.0,
        1.0,
        1.0
      ],
      "min": [
        1.0,
        1.0,
        1.0,
        1.0
      ],
      "type": "VEC4"
    },
    {
      "bufferView": 1,
      "byteOffset": 908192,
      "componentType": 5126,
      "count": 13112,
      "max": [
        1.0049293041229248,
        0.9999886155128479
      ],
      "min": [
        -0.00854615867137909,
        0.03224131837487221
      ],
      "type": "VEC2"
    },
    {
      "bufferView": 1,
      "byteOffset": 1013088,
      "componentType": 5126,
      "count": 13112,
      "max": [
        0.0,
        0.0
      ],
      "min": [
        0.0,
        0.0
      ],
      "type": "VEC2"
    },
    {
      "bufferView": 1,
      "byteOffset": 1117984,
      "componentType": 5126,
      "count": 13112,
      "max": [
        0.0,
        0.0
      ],
      "min": [
        0.0,
        0.0
      ],
      "type": "VEC2"
    },
    {
      "bufferView": 0,
      "byteOffset": 362916,
      "componentType": 5125,
      "count": 27456,
      "type": "SCALAR"
    },
    {
      "bufferView": 2,
      "byteOffset": 780048,
      "componentType": 5126,
      "count": 405,
      "max": [
        0.04635057598352432,
        -0.0017879009246826172,
        0.09406790882349014
      ],
      "min": [
        -0.046350594609975815,
        -0.028429031372070313,
        0.06818283349275589
      ],
      "type": "VEC3"
    },
    {
      "bufferView": 2,
      "byteOffset": 784908,
      "componentType": 5126,
      "count": 405,
      "max": [
        0.9992355108261108,
        0.9957824945449829,
        0.9990430474281311
      ],
      "min": [
        -0.9980923533439636,
        -0.9954708218574524,
        -0.9992355108261108
      ],
      "type": "VEC3"
    },
    {
      "bufferView": 3,
      "byteOffset": 807744,
      "componentType": 5126,
      "count": 405,
      "max": [
        0.9999983906745911,
        1.0,
        0.9999090433120728,
        1.0
      ],
      "min": [
        -0.9997678399085999,
        -1.0,
        -0.997767984867096,
        1.0
      ],
      "type": "VEC4"
    },
    {
      "bufferView": 3,
      "byteOffset": 814224,
      "componentType": 5126,
      "count": 405,
      "max": [
        1.0,
        1.0,
        1.0,
        1.0
      ],
      "min": [
        1.0,
        1.0,
        1.0,
        1.0
      ],
      "type": "VEC4"
    },
    {
      "bufferView": 1,
      "byteOffset": 1222880,
      "componentType": 5126,
      "count": 405,
      "max": [
        0.97214275598526,
        0.9802349805831909
      ],
      "min": [
        0.0066406140103936195,
        0.0689086988568306
      ],
      "type": "VEC2"
    },
    {
      "bufferView": 1,
      "byteOffset": 1226120,
      "componentType": 5126,
      "count": 405,
      "max": [
        0.0,
        0.0
      ],
      "min": [
        0.0,
        0.0
      ],
      "type": "VEC2"
    },
    {
      "bufferView": 1,
      "byteOffset": 1229360,
      "componentType": 5126,
      "count": 405,
      "max": [
        0.0,
        0.0
      ],
      "min": [
        0.0,
        0.0
      ],
      "type": "VEC2"
    },
    {
      "bufferView": 1,
      "byteOffset": 1232600,
      "componentType": 5126,
      "count": 405,
      "max": [
        0.97214275598526,
        0.9802349805831909
      ],
      "min": [
        0.0066406140103936195,
        0.0689086988568306
      ],
      "type": "VEC2"
    },
    {
      "bufferView": 0,
      "byteOffset": 472740,
      "componentType": 5125,
      "count": 2214,
      "type": "SCALAR"
    }
  ],
  "asset": {
    "extras": {
      "author": "Chenuka Wijesundara (https://sketchfab.com/ChenukaWijesundara)",
      "license": "CC-BY-4.0 (http://creativecommons.org/licenses/by/4.0/)",
      "source": "https://sketchfab.com/3d-models/game-ready-viking-warrior-character-7e3dd98918ec4ccba3f8d2baf4259c45",
      "title": "Game Ready Viking Warrior Character"
    },
    "generator": "Sketchfab-11.51.1",
    "version": "2.0"
  },
  "bufferViews": [
    {
      "buffer": 0,
      "byteLength": 481596,
      "name": "floatBufferViews",
      "target": 34963
    },
    {
      "buffer": 0,
      "byteLength": 1235840,
      "byteOffset": 481596,
      "byteStride": 8,
      "name": "floatBufferViews",
      "target": 34962
    },
    {
      "buffer": 0,
      "byteLength": 789768,
      "byteOffset": 1717436,
      "byteStride": 12,
      "name": "floatBufferViews",
      "target": 34962
    },
    {
      "buffer": 0,
      "byteLength": 820704,
      "byteOffset": 2507204,
      "byteStride": 16,
      "name": "floatBufferViews",
      "target": 34962
    }
  ],
  "buffers": [
    {
      "byteLength": 3327908,
      "uri": "scene.bin"
    }
  ],
  "images": [
    {
      "uri": "textures/None_baseColor.png"
    },
    {
      "uri": "textures/None_metallicRoughness.png"
    },
    {
      "uri": "textures/None_normal.png"
    },
    {
      "uri": "textures/Clothes_baseColor.jpeg"
    },
    {
      "uri": "textures/Clothes_metallicRoughness.png"
    },
    {
      "uri": "textures/Clothes_normal.png"
    },
    {
      "uri": "textures/Body_baseColor.png"
    },
    {
      "uri": "textures/Body_metallicRoughness.png"
    },
    {
      "uri": "textures/Body_normal.png"
    },
    {
      "uri": "textures/Hair_baseColor.png"
    },
    {
      "uri": "textures/Eyes_baseColor.png"
    },
    {
      "uri": "textures/Eyes_normal.png"
    }
  ],
  "materials": [
    {
      "doubleSided": true,
      "name": "None",
      "normalTexture": {
        "index": 2
      },
      "pbrMetallicRoughness": {
        "baseColorTexture": {
          "index": 0
        },
        "metallicRoughnessTexture": {
          "index": 1
        }
      }
    },
    {
      "doubleSided": true,
      "name": "Clothes",
      "normalTexture": {
        "index": 5
      },
      "pbrMetallicRoughness": {
        "baseColorTexture": {
          "index": 3
        },
        "metallicRoughnessTexture": {
          "index": 4
        }
      }
    },
    {
      "doubleSided": true,
      "name": "Body",
      "normalTexture": {
        "index": 8,
        "texCoord": 1
      },
      "pbrMetallicRoughness": {
        "baseColorTexture": {
          "index": 6
        },
        "metallicFactor": 0.0,
        "metallicRoughnessTexture": {
          "index": 7
        }
      }
    },
    {
      "doubleSided": true,
      "name": "Hair",
      "pbrMetallicRoughness": {
        "baseColorTexture": {
          "index": 9
        },
        "metallicFactor": 0.5,
        "roughnessFactor": 0.6450213127170034
      }
    },
    {
      "doubleSided": true,
      "name": "Eyes",
      "normalTexture": {
        "index": 11
      },
      "pbrMetallicRoughness": {
        "baseColorTexture": {
          "index": 10
        },
        "metallicFactor": 0.5,
        "roughnessFactor": 0.0
      }
    }
  ],
  "meshes": [
    {
      "name": "Object_0",
      "primitives": [
        {
          "attributes": {
            "NORMAL": 1,
            "POSITION": 0,
            "TANGENT": 2,
            "TEXCOORD_0": 3,
            "TEXCOORD_1": 4,
            "TEXCOORD_2": 5,
            "TEXCOORD_3": 6
          },
          "indices": 7,
          "material": 0,
          "mode": 4
        }
      ]
    },
    {
      "name": "Object_1",
      "primitives": [
        {
          "attributes": {
            "COLOR_0": 11,
            "NORMAL": 9,
            "POSITION": 8,
            "TANGENT": 10,
            "TEXCOORD_0": 12,
            "TEXCOORD_1": 13,
            "TEXCOORD_2": 14,
            "TEXCOORD_3": 15,
            "TEXCOORD_4": 16,
            "TEXCOORD_5": 17
          },
          "indices": 18,
          "material": 1,
          "mode": 4
        }
      ]
    },
    {
      "name": "Object_2",
      "primitives": [
        {
          "attributes": {
            "COLOR_0": 22,
            "NORMAL": 20,
            "POSITION": 19,
            "TANGENT": 21,
            "TEXCOORD_0": 23,
            "TEXCOORD_1": 24,
            "TEXCOORD_2": 25,
            "TEXCOORD_3": 26,
            "TEXCOORD_4": 27,
            "TEXCOORD_5": 28
          },
          "indices": 29,
          "material": 2,
          "mode": 4
        }
      ]
    },
    {
      "name": "Object_3",
      "primitives": [
        {
          "attributes": {
            "COLOR_0": 32,
            "NORMAL": 31,
            "POSITION": 30,
            "TEXCOORD_0": 33,
            "TEXCOORD_1": 34,
            "TEXCOORD_2": 35
          },
          "indices": 36,
          "material": 3,
          "mode": 4
        }
      ]
    },
    {
      "name": "Object_4",
      "primitives": [
        {
          "attributes": {
            "COLOR_0": 40,
            "NORMAL": 38,
            "POSITION": 37,
            "TANGENT": 39,
            "TEXCOORD_0": 41,
            "TEXCOORD_1": 42,
            "TEXCOORD_2": 43,
            "TEXCOORD_3": 44
          },
          "indices": 45,
          "material": 4,
          "mode": 4
        }
      ]
    }
  ],
  "nodes": [
    {
      "children": [
        1
      ],
      "matrix": [
        1.0,
        0.0,
        0.0,
        0.0,
        0.0,
        2.220446049250313e-16,
        -1.0,
        0.0,
        0.0,
        1.0,
        2.220446049250313e-16,
        0.0,
        0.0,
        0.0,
        0.0,
        1.0
      ],
      "name": "Sketchfab_model"
    },
    {
      "children": [
        2
      ],
      "name": "root"
    },
    {
      "children": [
        3,
        5
      ],
      "matrix": [
        1.0,
        0.0,
        0.0,
        0.0,
        0.0,
        2.220446049250313e-16,
        1.0,
        0.0,
        0.0,
        -1.0,
        2.220446049250313e-16,
        0.0,
        0.0,
        0.0,
        0.0,
        1.0
      ],
      "name": "GLTF_SceneRootNode"
    },
    {
      "children": [
        4
      ],
      "matrix": [
        -0.9154308438300842,
        1.4914261381380287e-07,
        1.4914258867023995e-07,
        0.0,
        -1.4914261381380287e-07,
        -1.5433009083612244e-07,
        -0.9154308438300834,
        0.0,
        -1.4914258867023995e-07,
        -0.9154308438300834,
        1.5433011532973328e-07,
        0.0,
        0.0,
        1.0,
        0.0,
        1.0
      ],
      "name": "burgh_helmet_0"
    },
    {
      "mesh": 0,
      "name": "Object_4"
    },
    {
      "children": [
        6,
        7,
        8,
        9
      ],
      "matrix": [
        1.0,
        0.0,
        0.0,
        0.0,
        0.0,
        1.0,
        0.0,
        0.0,
        0.0,
        0.0,
        1.0,
        0.0,
        0.0,
        1.0,
        0.0,
        1.0
      ],
      "name": "Player.002_1"
    },
    {
      "mesh": 1,
      "name": "Object_6"
    },
    {
      "mesh": 2,
      "name": "Object_7"
    },
    {
      "mesh": 3,
      "name": "Object_8"
    },
    {
      "mesh": 4,
      "name": "Object_9"
    }
  ],
  "samplers": [
    {
      "magFilter": 9729,
      "minFilter": 9987,
      "wrapS": 10497,
      "wrapT": 10497
    }
  ],
  "scene": 0,
  "scenes": [
    {
      "name": "Sketchfab_Scene",
      "nodes": [
        0
      ]
    }
  ],
  "textures": [
    {
      "sampler": 0,
      "source": 0
    },
    {
      "sampler": 0,
      "source": 1
    },
    {
      "sampler": 0,
      "source": 2
    },
    {
      "sampler": 0,
      "source": 3
    },
    {
      "sampler": 0,
      "source": 4
    },
    {
      "sampler": 0,
      "source": 5
    },
    {
      "sampler": 0,
      "source": 6
    },
    {
      "sampler": 0,
      "source": 7
    },
    {
      "sampler": 0,
      "source": 8
    },
    {
      "sampler": 0,
      "source": 9
    },
    {
      "sampler": 0,
      "source": 10
    },
    {
      "sampler": 0,
      "source": 11
    }
  ]
}
